<svg width="367" height="49" viewBox="0 0 367 49" fill="none" xmlns="http://www.w3.org/2000/svg">
<path d="M40.4 47L41.1071 47.7071L41.1071 47.7071L40.4 47ZM2.5 47L1.77586 47.6897L1.79268 47.7073L1.81035 47.7241L2.5 47ZM2.5 2.1L3.20711 2.80711L3.20711 2.80711L2.5 2.1ZM40.4 2.1L39.6759 2.78965L39.6927 2.80732L39.7103 2.82414L40.4 2.1ZM42.5 14V15H43.5V14H42.5ZM34.5 14H33.5V15H34.5V14ZM34.5 7H35.5V6H34.5V7ZM8.5 7V6H7.5V7H8.5ZM8.5 42H7.5V43H8.5V42ZM34.5 42V43H35.5V42H34.5ZM34.5 35V34H33.5V35H34.5ZM42.5 35H43.5V34H42.5V35ZM41.5 42C41.5 43.661 40.9104 45.0754 39.6929 46.2929L41.1071 47.7071C42.6896 46.1246 43.5 44.2056 43.5 42H41.5ZM39.6929 46.2929C38.5523 47.4334 37.1756 48 35.5 48V50C37.691 50 39.581 49.2332 41.1071 47.7071L39.6929 46.2929ZM35.5 48H7.5V50H35.5V48ZM7.5 48C5.82344 48 4.40371 47.4321 3.18966 46.2759L1.81035 47.7241C3.39629 49.2346 5.30989 50 7.5 50V48ZM3.22414 46.3103C2.06789 45.0963 1.5 43.6766 1.5 42H-0.5C-0.5 44.1901 0.265442 46.1037 1.77586 47.6897L3.22414 46.3103ZM1.5 42V7H-0.5V42H1.5ZM1.5 7C1.5 5.32436 2.06656 3.94765 3.20711 2.80711L1.79289 1.39289C0.266775 2.91901 -0.5 4.80896 -0.5 7H1.5ZM3.20711 2.80711C4.42463 1.58958 5.83895 0.999999 7.5 0.999999V-1C5.29438 -1 3.37537 -0.189584 1.79289 1.39289L3.20711 2.80711ZM7.5 0.999999H35.5V-1H7.5V0.999999ZM35.5 0.999999C37.1597 0.999999 38.5313 1.58783 39.6759 2.78965L41.1241 1.41034C39.6021 -0.187836 37.707 -1 35.5 -1V0.999999ZM39.7103 2.82414C40.9122 3.96873 41.5 5.34034 41.5 7H43.5C43.5 4.79299 42.6878 2.89794 41.0897 1.37586L39.7103 2.82414ZM41.5 7V14H43.5V7H41.5ZM42.5 13H34.5V15H42.5V13ZM35.5 14V7H33.5V14H35.5ZM34.5 6H8.5V8H34.5V6ZM7.5 7V42H9.5V7H7.5ZM8.5 43H34.5V41H8.5V43ZM35.5 42V35H33.5V42H35.5ZM34.5 36H42.5V34H34.5V36ZM41.5 35V42H43.5V35H41.5ZM96.943 47L97.6501 47.7071L97.6501 47.7071L96.943 47ZM59.043 47L58.3188 47.6897L58.3357 47.7073L58.3533 47.7241L59.043 47ZM59.043 2.1L59.7501 2.80711L59.7501 2.80711L59.043 2.1ZM96.943 2.1L96.2188 2.78965L96.2357 2.80732L96.2533 2.82414L96.943 2.1ZM91.043 42V43H92.043V42H91.043ZM91.043 7H92.043V6H91.043V7ZM65.043 7V6H64.043V7H65.043ZM65.043 42H64.043V43H65.043V42ZM98.043 42C98.043 43.661 97.4534 45.0754 96.2359 46.2929L97.6501 47.7071C99.2326 46.1246 100.043 44.2056 100.043 42H98.043ZM96.2359 46.2929C95.0953 47.4334 93.7186 48 92.043 48V50C94.234 50 96.124 49.2332 97.6501 47.7071L96.2359 46.2929ZM92.043 48H64.043V50H92.043V48ZM64.043 48C62.3664 48 60.9467 47.4321 59.7326 46.2759L58.3533 47.7241C59.9393 49.2346 61.8529 50 64.043 50V48ZM59.7671 46.3103C58.6109 45.0963 58.043 43.6766 58.043 42H56.043C56.043 44.1901 56.8084 46.1037 58.3188 47.6897L59.7671 46.3103ZM58.043 42V7H56.043V42H58.043ZM58.043 7C58.043 5.32436 58.6095 3.94765 59.7501 2.80711L58.3359 1.39289C56.8097 2.91901 56.043 4.80896 56.043 7H58.043ZM59.7501 2.80711C60.9676 1.58958 62.3819 0.999999 64.043 0.999999V-1C61.8373 -1 59.9183 -0.189584 58.3359 1.39289L59.7501 2.80711ZM64.043 0.999999H92.043V-1H64.043V0.999999ZM92.043 0.999999C93.7026 0.999999 95.0742 1.58783 96.2188 2.78965L97.6671 1.41034C96.145 -0.187836 94.25 -1 92.043 -1V0.999999ZM96.2533 2.82414C97.4551 3.96873 98.043 5.34034 98.043 7H100.043C100.043 4.79299 99.2308 2.89794 97.6326 1.37586L96.2533 2.82414ZM98.043 7V42H100.043V7H98.043ZM92.043 42V7H90.043V42H92.043ZM91.043 6H65.043V8H91.043V6ZM64.043 7V42H66.043V7H64.043ZM65.043 43H91.043V41H65.043V43ZM158.527 49V50H159.527V49H158.527ZM150.527 49H149.527V50H150.527V49ZM150.527 43H151.527V40.5858L149.82 42.2929L150.527 43ZM144.527 49V50H144.942L145.234 49.7071L144.527 49ZM118.527 47L117.803 47.6897L117.82 47.7073L117.838 47.7241L118.527 47ZM116.527 -9.53674e-07V-1H115.527V-9.53674e-07H116.527ZM124.527 -9.53674e-07H125.527V-1H124.527V-9.53674e-07ZM124.527 42H123.527V43H124.527V42ZM150.527 42V43H151.527V42H150.527ZM150.527 -9.53674e-07V-1H149.527V-9.53674e-07H150.527ZM158.527 -9.53674e-07H159.527V-1H158.527V-9.53674e-07ZM158.527 48H150.527V50H158.527V48ZM151.527 49V43H149.527V49H151.527ZM149.82 42.2929L143.82 48.2929L145.234 49.7071L151.234 43.7071L149.82 42.2929ZM144.527 48H123.527V50H144.527V48ZM123.527 48C121.851 48 120.431 47.4321 119.217 46.2759L117.838 47.7241C119.424 49.2346 121.337 50 123.527 50V48ZM119.251 46.3103C118.095 45.0963 117.527 43.6766 117.527 42H115.527C115.527 44.1901 116.293 46.1037 117.803 47.6897L119.251 46.3103ZM117.527 42V-9.53674e-07H115.527V42H117.527ZM116.527 0.999999H124.527V-1H116.527V0.999999ZM123.527 -9.53674e-07V42H125.527V-9.53674e-07H123.527ZM124.527 43H150.527V41H124.527V43ZM151.527 42V-9.53674e-07H149.527V42H151.527ZM150.527 0.999999H158.527V-1H150.527V0.999999ZM157.527 -9.53674e-07V49H159.527V-9.53674e-07H157.527ZM219.488 49V50H221.915L220.193 48.2904L219.488 49ZM209.288 49L208.578 49.7037L208.871 50H209.288V49ZM188.488 28V27H186.09L187.778 28.7037L188.488 28ZM210.488 28V29H211.488V28H210.488ZM210.488 7H211.488V6H210.488V7ZM184.488 7V6H183.488V7H184.488ZM184.488 49V50H185.488V49H184.488ZM176.488 49H175.488V50H176.488V49ZM176.488 13.9L175.786 13.1878L175.488 13.4816V13.9H176.488ZM183.488 7L184.19 7.71217L185.927 6H183.488V7ZM176.488 7H175.488V8H176.488V7ZM176.488 -9.53674e-07V-1H175.488V-9.53674e-07H176.488ZM216.388 2.1L215.681 2.80711L215.681 2.80711L216.388 2.1ZM205.488 34V33H204.488V34H205.488ZM205.488 35.1H204.488V35.5163L204.784 35.8096L205.488 35.1ZM219.488 48H209.288V50H219.488V48ZM209.999 48.2963L189.199 27.2963L187.778 28.7037L208.578 49.7037L209.999 48.2963ZM188.488 29H210.488V27H188.488V29ZM211.488 28V7H209.488V28H211.488ZM210.488 6H184.488V8H210.488V6ZM183.488 7V49H185.488V7H183.488ZM184.488 48H176.488V50H184.488V48ZM177.488 49V13.9H175.488V49H177.488ZM177.19 14.6122L184.19 7.71217L182.786 6.28782L175.786 13.1878L177.19 14.6122ZM183.488 6H176.488V8H183.488V6ZM177.488 7V-9.53674e-07H175.488V7H177.488ZM176.488 0.999999H211.488V-1H176.488V0.999999ZM211.488 0.999999C213.072 0.999999 214.456 1.58202 215.681 2.80711L217.095 1.39289C215.52 -0.182019 213.638 -1 211.488 -1V0.999999ZM215.681 2.80711C216.906 4.0322 217.488 5.41589 217.488 7H219.488C219.488 4.85078 218.67 2.9678 217.095 1.39289L215.681 2.80711ZM217.488 7V26H219.488V7H217.488ZM217.488 26C217.488 28.5429 216.929 30.2633 215.986 31.3415C215.065 32.3942 213.63 33 211.488 33V35C214.013 35 216.079 34.2725 217.491 32.6585C218.881 31.07 219.488 28.7904 219.488 26H217.488ZM211.488 33H205.488V35H211.488V33ZM204.488 34V35.1H206.488V34H204.488ZM204.784 35.8096L218.784 49.7096L220.193 48.2904L206.193 34.3904L204.784 35.8096ZM264.908 47L265.615 47.7071L265.615 47.7071L264.908 47ZM232.008 49H231.008V50H232.008V49ZM232.008 42V41H231.008V42H232.008ZM259.008 42V43H260.008V42H259.008ZM259.008 28H260.008V27H259.008V28ZM234.008 26L233.284 26.6897L233.3 26.7073L233.318 26.7241L234.008 26ZM234.008 2.1L234.715 2.80711L234.715 2.80711L234.008 2.1ZM267.008 -9.53674e-07H268.008V-1H267.008V-9.53674e-07ZM267.008 7V8H268.008V7H267.008ZM240.008 7V6H239.008V7H240.008ZM240.008 21H239.008V22H240.008V21ZM264.908 23.1L264.184 23.7897L264.2 23.8073L264.218 23.8241L264.908 23.1ZM266.008 42C266.008 43.661 265.418 45.0754 264.201 46.2929L265.615 47.7071C267.197 46.1246 268.008 44.2056 268.008 42H266.008ZM264.201 46.2929C263.06 47.4334 261.683 48 260.008 48V50C262.199 50 264.089 49.2332 265.615 47.7071L264.201 46.2929ZM260.008 48H232.008V50H260.008V48ZM233.008 49V42H231.008V49H233.008ZM232.008 43H259.008V41H232.008V43ZM260.008 42V28H258.008V42H260.008ZM259.008 27H239.008V29H259.008V27ZM239.008 27C237.331 27 235.912 26.4321 234.697 25.2759L233.318 26.7241C234.904 28.2346 236.818 29 239.008 29V27ZM234.732 25.3103C233.576 24.0963 233.008 22.6766 233.008 21H231.008C231.008 23.1901 231.773 25.1037 233.284 26.6897L234.732 25.3103ZM233.008 21V7H231.008V21H233.008ZM233.008 7C233.008 5.32436 233.574 3.94765 234.715 2.80711L233.301 1.39289C231.775 2.91901 231.008 4.80896 231.008 7H233.008ZM234.715 2.80711C235.932 1.58958 237.347 0.999999 239.008 0.999999V-1C236.802 -1 234.883 -0.189584 233.301 1.39289L234.715 2.80711ZM239.008 0.999999H267.008V-1H239.008V0.999999ZM266.008 -9.53674e-07V7H268.008V-9.53674e-07H266.008ZM267.008 6H240.008V8H267.008V6ZM239.008 7V21H241.008V7H239.008ZM240.008 22H260.008V20H240.008V22ZM260.008 22C261.667 22 263.039 22.5878 264.184 23.7897L265.632 22.4103C264.11 20.8122 262.215 20 260.008 20V22ZM264.218 23.8241C265.42 24.9687 266.008 26.3403 266.008 28H268.008C268.008 25.793 267.196 23.8979 265.597 22.3759L264.218 23.8241ZM266.008 28V42H268.008V28H266.008ZM318.031 49V50H319.031V49H318.031ZM283.031 49H282.031V50H283.031V49ZM283.031 14L282.324 13.2929L282.031 13.5858V14H283.031ZM290.031 7L290.738 7.70711L292.445 6H290.031V7ZM283.031 7H282.031V8H283.031V7ZM283.031 -9.53674e-07V-1H282.031V-9.53674e-07H283.031ZM318.031 -9.53674e-07H319.031V-1H318.031V-9.53674e-07ZM318.031 7V8H319.031V7H318.031ZM291.031 7V6H290.031V7H291.031ZM291.031 27H290.031V29.4142L291.738 27.7071L291.031 27ZM297.031 21V20H296.617L296.324 20.2929L297.031 21ZM318.031 21H319.031V20H318.031V21ZM318.031 28V29H319.031V28H318.031ZM291.031 28V27H290.031V28H291.031ZM291.031 42H290.031V43H291.031V42ZM318.031 42H319.031V41H318.031V42ZM318.031 48H283.031V50H318.031V48ZM284.031 49V14H282.031V49H284.031ZM283.738 14.7071L290.738 7.70711L289.324 6.29289L282.324 13.2929L283.738 14.7071ZM290.031 6H283.031V8H290.031V6ZM284.031 7V-9.53674e-07H282.031V7H284.031ZM283.031 0.999999H318.031V-1H283.031V0.999999ZM317.031 -9.53674e-07V7H319.031V-9.53674e-07H317.031ZM318.031 6H291.031V8H318.031V6ZM290.031 7V27H292.031V7H290.031ZM291.738 27.7071L297.738 21.7071L296.324 20.2929L290.324 26.2929L291.738 27.7071ZM297.031 22H318.031V20H297.031V22ZM317.031 21V28H319.031V21H317.031ZM318.031 27H291.031V29H318.031V27ZM290.031 28V42H292.031V28H290.031ZM291.031 43H318.031V41H291.031V43ZM317.031 42V49H319.031V42H317.031ZM363.931 47L364.638 47.7071L364.638 47.7071L363.931 47ZM331.031 49H330.031V50H331.031V49ZM331.031 42V41H330.031V42H331.031ZM358.031 42V43H359.031V42H358.031ZM358.031 28H359.031V27H358.031V28ZM333.031 26L332.307 26.6897L332.324 26.7073L332.342 26.7241L333.031 26ZM333.031 2.1L333.738 2.80711L333.738 2.80711L333.031 2.1ZM366.031 -9.53674e-07H367.031V-1H366.031V-9.53674e-07ZM366.031 7V8H367.031V7H366.031ZM339.031 7V6H338.031V7H339.031ZM339.031 21H338.031V22H339.031V21ZM363.931 23.1L363.207 23.7897L363.224 23.8073L363.242 23.8241L363.931 23.1ZM365.031 42C365.031 43.661 364.442 45.0754 363.224 46.2929L364.638 47.7071C366.221 46.1246 367.031 44.2056 367.031 42H365.031ZM363.224 46.2929C362.084 47.4334 360.707 48 359.031 48V50C361.222 50 363.112 49.2332 364.638 47.7071L363.224 46.2929ZM359.031 48H331.031V50H359.031V48ZM332.031 49V42H330.031V49H332.031ZM331.031 43H358.031V41H331.031V43ZM359.031 42V28H357.031V42H359.031ZM358.031 27H338.031V29H358.031V27ZM338.031 27C336.355 27 334.935 26.4321 333.721 25.2759L332.342 26.7241C333.928 28.2346 335.841 29 338.031 29V27ZM333.755 25.3103C332.599 24.0963 332.031 22.6766 332.031 21H330.031C330.031 23.1901 330.797 25.1037 332.307 26.6897L333.755 25.3103ZM332.031 21V7H330.031V21H332.031ZM332.031 7C332.031 5.32436 332.598 3.94765 333.738 2.80711L332.324 1.39289C330.798 2.91901 330.031 4.80896 330.031 7H332.031ZM333.738 2.80711C334.956 1.58958 336.37 0.999999 338.031 0.999999V-1C335.826 -1 333.907 -0.189584 332.324 1.39289L333.738 2.80711ZM338.031 0.999999H366.031V-1H338.031V0.999999ZM365.031 -9.53674e-07V7H367.031V-9.53674e-07H365.031ZM366.031 6H339.031V8H366.031V6ZM338.031 7V21H340.031V7H338.031ZM339.031 22H359.031V20H339.031V22ZM359.031 22C360.691 22 362.063 22.5878 363.207 23.7897L364.655 22.4103C363.133 20.8122 361.238 20 359.031 20V22ZM363.242 23.8241C364.443 24.9687 365.031 26.3403 365.031 28H367.031C367.031 25.793 366.219 23.8979 364.621 22.3759L363.242 23.8241ZM365.031 28V42H367.031V28H365.031Z" fill="white"/>
</svg>
