<svg width="319" height="33" viewBox="0 0 319 33" fill="none" xmlns="http://www.w3.org/2000/svg">
<path d="M7.408 27.48C7.024 27.48 6.61867 27.352 6.192 27.096C6.02133 26.9467 5.75467 26.7333 5.392 26.456C5.05067 26.1573 4.67733 25.848 4.272 25.528C3.888 25.1867 3.52533 24.8773 3.184 24.6C2.84267 24.3227 2.608 24.12 2.48 23.992C2.352 23.864 2.224 23.7467 2.096 23.64C1.98933 23.5333 1.88267 23.4373 1.776 23.352C1.56267 23.16 1.392 22.9893 1.264 22.84C1.136 22.6907 1.02933 22.5413 0.944 22.392C0.88 22.2427 0.848 22.0613 0.848 21.848C0.848 21.4 1.136 20.92 1.712 20.408L6.992 15.64C7.35467 15.2987 7.856 15.128 8.496 15.128H8.976C9.06133 15.2347 9.09333 15.3627 9.072 15.512C9.072 15.6613 9.072 15.832 9.072 16.024C9.072 16.3867 8.89067 16.7707 8.528 17.176C8.18667 17.5813 7.68533 18.0293 7.024 18.52C6.72533 18.7547 6.416 18.9787 6.096 19.192C5.776 19.4053 5.46667 19.6293 5.168 19.864C4.89067 20.0773 4.592 20.312 4.272 20.568C3.952 20.824 3.6 21.1973 3.216 21.688C3.77067 22.2853 4.272 22.776 4.72 23.16C5.168 23.544 5.59467 23.9067 6 24.248C6.384 24.5467 6.768 24.856 7.152 25.176C7.536 25.4747 7.90933 25.7947 8.272 26.136C8.31467 26.2213 8.35733 26.328 8.4 26.456C8.464 26.584 8.496 26.7013 8.496 26.808C8.496 26.936 8.4 27.0853 8.208 27.256C8.03733 27.4053 7.77067 27.48 7.408 27.48ZM28.7595 30.2C28.3542 30.2 28.0662 30.136 27.8955 30.008C27.7462 29.8587 27.6395 29.624 27.5755 29.304V27.864C27.5755 26.0933 27.6502 24.3227 27.7995 22.552C27.9488 20.76 28.0875 18.968 28.2155 17.176C28.3648 15.3627 28.4395 13.56 28.4395 11.768C28.4395 11.2773 28.5675 10.872 28.8235 10.552C29.0795 10.232 29.4102 10.072 29.8155 10.072C30.2635 10.072 30.5515 10.2 30.6795 10.456C30.8288 10.712 30.8928 11.0213 30.8715 11.384C30.8715 11.7467 30.8715 12.0987 30.8715 12.44C30.8715 14.808 30.7542 17.208 30.5195 19.64C30.2848 22.0507 30.1675 24.6107 30.1675 27.32C30.7862 27.2347 31.5542 27.1387 32.4715 27.032C33.3888 26.9253 34.2955 26.8187 35.1915 26.712C36.1088 26.6053 36.8448 26.5307 37.3995 26.488H38.3915C38.6262 26.488 38.9248 26.488 39.2875 26.488C39.6502 26.488 40.0128 26.52 40.3755 26.584C40.7595 26.6267 41.0688 26.7333 41.3035 26.904C41.5595 27.0747 41.6875 27.3307 41.6875 27.672C41.6875 28.2053 41.5168 28.5467 41.1755 28.696C40.8555 28.8453 40.4822 28.92 40.0555 28.92C39.8848 28.92 39.7142 28.92 39.5435 28.92C39.3728 28.8987 39.2022 28.888 39.0315 28.888C37.7515 28.888 36.2262 28.9947 34.4555 29.208C32.6848 29.4 30.9462 29.7307 29.2395 30.2H28.7595ZM45.028 30.84C44.644 30.84 44.388 30.7973 44.26 30.712C44.1533 30.6053 44.1 30.3707 44.1 30.008C44.1 29.624 44.1747 29.368 44.324 29.24C44.4947 29.0907 44.676 28.9733 44.868 28.888C45.06 28.8027 45.2413 28.7173 45.412 28.632C45.5827 28.5467 45.7427 28.4293 45.892 28.28C46.276 27.9387 46.468 27.48 46.468 26.904C46.468 26.6053 46.4573 26.2213 46.436 25.752C46.436 25.2613 46.436 24.7387 46.436 24.184C46.436 23.3093 46.436 22.4027 46.436 21.464C46.4573 20.504 46.4893 19.608 46.532 18.776C46.5747 17.944 46.628 17.2933 46.692 16.824C46.756 16.2693 46.8093 15.7147 46.852 15.16C46.916 14.6053 46.98 14.04 47.044 13.464V12.408C46.8307 12.1733 46.6493 12.0027 46.5 11.896C46.3507 11.768 46.212 11.6613 46.084 11.576L45.476 11.192C45.3267 11.1067 45.2093 11.0213 45.124 10.936C45.06 10.8293 45.028 10.6693 45.028 10.456C45.028 10.0293 45.2627 9.816 45.732 9.816C46.0947 9.816 46.4253 9.848 46.724 9.912C47.044 9.95467 47.3427 9.976 47.62 9.976H47.972C48.0787 9.976 48.3453 9.95467 48.772 9.912C49.1987 9.848 49.6467 9.784 50.116 9.72C50.5427 9.656 50.948 9.60267 51.332 9.56C51.716 9.496 51.9507 9.464 52.036 9.464H52.228C52.5693 9.464 52.804 9.528 52.932 9.656C53.06 9.76266 53.124 9.976 53.124 10.296C53.124 10.6373 53.06 10.8613 52.932 10.968C52.8253 11.0747 52.6653 11.1493 52.452 11.192C52.2813 11.2347 52.1 11.2773 51.908 11.32C51.716 11.3627 51.5347 11.4053 51.364 11.448C51.1507 11.512 50.9267 11.608 50.692 11.736C50.4787 11.864 50.2653 12.0773 50.052 12.376C49.9027 13.1867 49.7533 13.9973 49.604 14.808C49.476 15.5973 49.3587 16.3973 49.252 17.208C48.996 19.4053 48.868 21.6453 48.868 23.928C48.868 24.3333 48.868 24.6853 48.868 24.984C48.8893 25.2827 48.9107 25.6027 48.932 25.944C48.9533 26.2853 48.996 26.7227 49.06 27.256C49.188 27.704 49.572 27.992 50.212 28.12C50.3613 28.1413 50.5213 28.1733 50.692 28.216C50.884 28.2373 51.076 28.2693 51.268 28.312C51.588 28.376 51.8227 28.472 51.972 28.6C52.1213 28.7067 52.196 28.8987 52.196 29.176C52.196 29.3893 52.1107 29.5707 51.94 29.72C51.7907 29.848 51.5133 29.9653 51.108 30.072C50.916 30.1147 50.7133 30.1467 50.5 30.168C50.2867 30.1893 50.0733 30.2107 49.86 30.232L48.644 30.328C48.58 30.3493 48.4947 30.36 48.388 30.36C48.2813 30.36 48.1533 30.3813 48.004 30.424C47.876 30.4453 47.7267 30.4773 47.556 30.52C47.4067 30.5413 47.2467 30.5733 47.076 30.616C46.7987 30.6587 46.5213 30.712 46.244 30.776C45.988 30.8187 45.8173 30.84 45.732 30.84H45.028ZM46.884 6.36C46.7133 6.36 46.5747 6.30667 46.468 6.2C46.3827 6.09333 46.3507 5.90133 46.372 5.624C46.4147 5.368 46.564 5.12266 46.82 4.888C47.076 4.65333 47.364 4.44 47.684 4.248C48.004 4.03467 48.2707 3.864 48.484 3.736C48.6547 3.62933 48.8147 3.544 48.964 3.48C49.1133 3.39467 49.252 3.30933 49.38 3.224C49.4867 3.13867 49.7107 3.02133 50.052 2.872C50.3933 2.70133 50.7347 2.54133 51.076 2.392C51.4173 2.24267 51.6307 2.15733 51.716 2.136C51.78 2.11466 51.844 2.104 51.908 2.104C51.9933 2.104 52.0893 2.11466 52.196 2.136C52.452 2.15733 52.6973 2.296 52.932 2.552C53.188 2.808 53.3053 3.02133 53.284 3.192C53.2627 3.27733 53.1987 3.37333 53.092 3.48C53.0493 3.50133 53.0067 3.53333 52.964 3.576C52.9427 3.59733 52.9 3.62933 52.836 3.672L52.42 3.928C52.3347 3.97067 52.0893 4.07733 51.684 4.248C51.3 4.39733 50.8627 4.55733 50.372 4.728C50.1587 4.792 49.9667 4.87733 49.796 4.984C49.6253 5.06933 49.4653 5.15467 49.316 5.24C49.1453 5.32533 48.9853 5.4 48.836 5.464C48.708 5.50666 48.6227 5.54933 48.58 5.592C48.4307 5.69867 48.1747 5.85867 47.812 6.072C47.4707 6.264 47.1613 6.36 46.884 6.36ZM64.6998 31.48C64.3371 31.48 63.8571 31.4693 63.2598 31.448C62.6624 31.4267 62.0971 31.3307 61.5638 31.16C61.0304 31.0107 60.6784 30.7333 60.5078 30.328C60.5078 29.9867 60.5184 29.368 60.5398 28.472C60.5611 27.576 60.5718 26.5093 60.5718 25.272C60.5931 24.0133 60.6144 22.6693 60.6358 21.24C60.6571 19.8107 60.6678 18.4133 60.6678 17.048C60.6678 16.3653 60.6038 15.6827 60.4758 15C60.3478 14.296 60.1664 13.6773 59.9318 13.144C59.7184 12.6107 59.4518 12.2693 59.1318 12.12C58.8758 12.248 58.6198 12.344 58.3638 12.408C58.1291 12.4507 57.8944 12.472 57.6598 12.472C57.3184 12.472 57.0304 12.3973 56.7958 12.248C56.5611 12.0773 56.4438 11.832 56.4438 11.512C56.4438 10.936 56.6678 10.4667 57.1158 10.104C57.5638 9.74133 58.1184 9.464 58.7798 9.272C59.4411 9.08 60.1024 8.94133 60.7638 8.856C61.4251 8.77067 61.9584 8.70667 62.3638 8.664C62.6624 8.664 63.0678 8.65333 63.5798 8.632C64.0918 8.58933 64.5611 8.55733 64.9878 8.536C65.4144 8.51467 65.6491 8.504 65.6918 8.504C67.2064 8.54667 68.6678 8.81333 70.0758 9.304C71.5051 9.79467 72.7851 10.488 73.9158 11.384C75.0678 12.2587 75.9744 13.3147 76.6358 14.552C77.3184 15.7893 77.6598 17.1867 77.6598 18.744C77.6598 20.408 77.2971 22.008 76.5718 23.544C75.8464 25.0587 74.8651 26.4133 73.6278 27.608C72.3904 28.8027 71.0038 29.752 69.4678 30.456C67.9318 31.1387 66.3424 31.48 64.6998 31.48ZM64.5078 28.792C65.7664 28.792 67.0358 28.504 68.3158 27.928C69.6171 27.352 70.8011 26.5733 71.8678 25.592C72.9558 24.6107 73.8304 23.5013 74.4918 22.264C75.1531 21.0053 75.4838 19.7147 75.4838 18.392C75.4838 17.2613 75.1851 16.2373 74.5878 15.32C73.9904 14.4027 73.1798 13.624 72.1558 12.984C71.1318 12.3227 69.9904 11.8213 68.7318 11.48C67.4944 11.1387 66.2144 10.968 64.8918 10.968C64.7424 10.968 64.5718 10.968 64.3798 10.968C64.2091 10.968 64.0384 10.9787 63.8678 11C63.0358 11.0427 62.5238 11.3733 62.3318 11.992C62.6944 13.656 62.9291 15.256 63.0358 16.792C63.1424 18.328 63.1958 19.928 63.1958 21.592C63.1958 22.5093 63.1638 23.4373 63.0998 24.376C63.0571 25.3147 63.0358 26.2853 63.0358 27.288V28.248C63.2704 28.4613 63.5051 28.6107 63.7398 28.696C63.9958 28.76 64.2518 28.792 64.5078 28.792ZM81.7468 30.84C81.3628 30.84 81.1068 30.7973 80.9788 30.712C80.8721 30.6053 80.8188 30.3707 80.8188 30.008C80.8188 29.624 80.8934 29.368 81.0428 29.24C81.2134 29.0907 81.3948 28.9733 81.5868 28.888C81.7788 28.8027 81.9601 28.7173 82.1308 28.632C82.3014 28.5467 82.4614 28.4293 82.6108 28.28C82.9948 27.9387 83.1868 27.48 83.1868 26.904C83.1868 26.6053 83.1761 26.2213 83.1548 25.752C83.1548 25.2613 83.1548 24.7387 83.1548 24.184C83.1548 23.3093 83.1548 22.4027 83.1548 21.464C83.1761 20.504 83.2081 19.608 83.2508 18.776C83.2934 17.944 83.3468 17.2933 83.4108 16.824C83.4748 16.2693 83.5281 15.7147 83.5708 15.16C83.6348 14.6053 83.6988 14.04 83.7628 13.464V12.408C83.5494 12.1733 83.3681 12.0027 83.2188 11.896C83.0694 11.768 82.9308 11.6613 82.8028 11.576L82.1948 11.192C82.0454 11.1067 81.9281 11.0213 81.8428 10.936C81.7788 10.8293 81.7468 10.6693 81.7468 10.456C81.7468 10.0293 81.9814 9.816 82.4508 9.816C82.8134 9.816 83.1441 9.848 83.4427 9.912C83.7627 9.95467 84.0614 9.976 84.3388 9.976H84.6908C84.7974 9.976 85.0641 9.95467 85.4908 9.912C85.9174 9.848 86.3654 9.784 86.8348 9.72C87.2614 9.656 87.6668 9.60267 88.0508 9.56C88.4348 9.496 88.6694 9.464 88.7548 9.464H88.9468C89.2881 9.464 89.5228 9.528 89.6508 9.656C89.7788 9.76266 89.8428 9.976 89.8428 10.296C89.8428 10.6373 89.7788 10.8613 89.6508 10.968C89.5441 11.0747 89.3841 11.1493 89.1708 11.192C89.0001 11.2347 88.8188 11.2773 88.6267 11.32C88.4348 11.3627 88.2534 11.4053 88.0828 11.448C87.8694 11.512 87.6454 11.608 87.4108 11.736C87.1974 11.864 86.9841 12.0773 86.7708 12.376C86.6214 13.1867 86.4721 13.9973 86.3228 14.808C86.1948 15.5973 86.0774 16.3973 85.9708 17.208C85.7148 19.4053 85.5868 21.6453 85.5868 23.928C85.5868 24.3333 85.5868 24.6853 85.5868 24.984C85.6081 25.2827 85.6294 25.6027 85.6508 25.944C85.6721 26.2853 85.7148 26.7227 85.7788 27.256C85.9068 27.704 86.2908 27.992 86.9308 28.12C87.0801 28.1413 87.2401 28.1733 87.4108 28.216C87.6028 28.2373 87.7948 28.2693 87.9868 28.312C88.3068 28.376 88.5414 28.472 88.6908 28.6C88.8401 28.7067 88.9148 28.8987 88.9148 29.176C88.9148 29.3893 88.8294 29.5707 88.6588 29.72C88.5094 29.848 88.2321 29.9653 87.8268 30.072C87.6348 30.1147 87.4321 30.1467 87.2188 30.168C87.0054 30.1893 86.7921 30.2107 86.5788 30.232L85.3628 30.328C85.2988 30.3493 85.2134 30.36 85.1068 30.36C85.0001 30.36 84.8721 30.3813 84.7228 30.424C84.5948 30.4453 84.4454 30.4773 84.2748 30.52C84.1254 30.5413 83.9654 30.5733 83.7948 30.616C83.5174 30.6587 83.2401 30.712 82.9628 30.776C82.7068 30.8187 82.5361 30.84 82.4508 30.84H81.7468ZM96.2345 30.68C96.0212 30.68 95.8078 30.616 95.5945 30.488C95.4025 30.36 95.2745 30.2213 95.2105 30.072V29.176C95.2105 28.728 95.2745 28.28 95.4025 27.832C95.5518 27.384 95.6692 26.936 95.7545 26.488C95.7972 26.3173 95.8292 26.1253 95.8505 25.912C95.8718 25.6773 95.8825 25.304 95.8825 24.792H94.0905C93.9412 24.7707 93.7918 24.7493 93.6425 24.728C93.4932 24.7067 93.3652 24.6853 93.2585 24.664C93.1092 24.6 92.9705 24.504 92.8425 24.376C92.7358 24.2267 92.6825 23.9707 92.6825 23.608C92.6825 23.1813 92.7785 22.8933 92.9705 22.744C93.1838 22.5947 93.5145 22.4773 93.9625 22.392C94.1972 22.3493 94.4425 22.3173 94.6985 22.296C94.9758 22.2533 95.2318 22.2213 95.4665 22.2C95.7225 22.1573 95.9892 22.0933 96.2665 22.008C96.5438 21.9227 96.7998 21.784 97.0345 21.592C97.1412 21.5067 97.2585 21.3893 97.3865 21.24C97.5358 21.0907 97.6105 21.016 97.6105 21.016C97.6532 20.9733 97.6958 20.9093 97.7385 20.824C97.7812 20.7173 97.8345 20.5893 97.8985 20.44C97.9412 20.3547 97.9838 20.2587 98.0265 20.152C98.0692 20.024 98.1012 19.9067 98.1225 19.8C98.1865 19.6293 98.2398 19.4693 98.2825 19.32C98.3465 19.1493 98.4105 19.0213 98.4745 18.936C98.6238 18.6587 98.8478 18.2213 99.1465 17.624C99.4452 17.0053 99.7652 16.344 100.107 15.64C100.469 14.9147 100.789 14.264 101.067 13.688C101.365 13.112 101.579 12.7173 101.707 12.504C101.92 12.1413 102.133 11.7787 102.347 11.416C102.581 11.0533 102.837 10.712 103.115 10.392C103.712 9.66667 104.235 9.304 104.683 9.304C105.088 9.304 105.44 9.41067 105.739 9.624C106.037 9.816 106.315 10.0933 106.571 10.456C106.827 10.84 107.04 11.2453 107.211 11.672C107.403 12.0773 107.595 12.4933 107.787 12.92C108.896 15.3307 109.877 17.8373 110.731 20.44C111.605 23.0427 112.299 25.6347 112.811 28.216V28.664C112.811 29.0267 112.704 29.3467 112.491 29.624C112.277 29.88 112.096 30.008 111.947 30.008C111.435 30.008 111.051 29.8267 110.795 29.464C110.56 29.1013 110.368 28.5573 110.219 27.832C110.133 27.4693 110.059 27.1173 109.995 26.776C109.952 26.4133 109.899 26.072 109.835 25.752C109.749 25.4533 109.611 25.1333 109.419 24.792C109.248 24.4293 109.077 24.1413 108.907 23.928H105.355C105.013 23.928 104.629 23.928 104.203 23.928C103.776 23.9067 103.328 23.896 102.859 23.896C102.389 23.896 101.909 23.928 101.419 23.992C100.928 24.0347 100.469 24.1413 100.043 24.312C99.4878 24.5253 99.0612 24.856 98.7625 25.304C98.4852 25.752 98.2718 26.2533 98.1225 26.808C97.9945 27.3413 97.8772 27.864 97.7705 28.376C97.6638 28.952 97.5252 29.4853 97.3545 29.976C97.2052 30.4453 96.8318 30.68 96.2345 30.68ZM104.491 21.592C105.685 21.592 106.517 21.5813 106.987 21.56C107.456 21.5387 107.765 21.432 107.915 21.24C107.979 21.0693 108.01 20.8773 108.01 20.664C108.01 20.3653 107.957 20.0347 107.851 19.672C107.765 19.288 107.659 18.9467 107.531 18.648C107.445 18.4347 107.317 18.1147 107.147 17.688C106.976 17.24 106.784 16.7493 106.571 16.216C106.357 15.6827 106.155 15.1707 105.963 14.68C105.771 14.1893 105.621 13.8053 105.515 13.528C105.472 13.3787 105.376 13.2293 105.227 13.08C105.099 12.9093 104.939 12.824 104.747 12.824C104.576 12.824 104.405 12.9307 104.235 13.144C104.043 13.4 103.776 13.8373 103.435 14.456C103.115 15.0747 102.763 15.7573 102.379 16.504C101.995 17.2507 101.643 17.976 101.323 18.68C101.003 19.3627 100.768 19.896 100.619 20.28C100.491 20.5573 100.427 20.7813 100.427 20.952C100.427 21.2293 100.533 21.4107 100.747 21.496C100.981 21.56 101.216 21.592 101.451 21.592H104.491ZM137.303 32.12C135.319 32.12 133.687 31.672 132.407 30.776C131.127 29.88 130.178 28.6747 129.559 27.16C128.941 25.624 128.631 23.9173 128.631 22.04C128.631 20.5467 128.887 19.0533 129.399 17.56C129.911 16.0453 130.637 14.6693 131.575 13.432C132.535 12.1947 133.677 11.2027 134.999 10.456C136.322 9.688 137.783 9.304 139.383 9.304C139.981 9.304 140.631 9.42133 141.335 9.656C142.061 9.86933 142.754 10.1787 143.415 10.584C144.077 10.968 144.621 11.416 145.047 11.928C145.474 12.4187 145.687 12.9413 145.687 13.496C145.687 13.6667 145.591 13.848 145.399 14.04C145.207 14.232 144.962 14.328 144.663 14.328C144.514 14.328 144.365 14.3067 144.215 14.264C144.087 14.2 143.97 14.1253 143.863 14.04C143.693 13.912 143.554 13.7947 143.447 13.688L142.967 13.176C142.626 12.792 142.178 12.44 141.623 12.12C141.069 11.8 140.322 11.64 139.383 11.64C138.039 11.64 136.834 11.9813 135.767 12.664C134.722 13.3467 133.826 14.2213 133.079 15.288C132.354 16.3547 131.799 17.4853 131.415 18.68C131.031 19.8747 130.839 20.9947 130.839 22.04C130.839 23.32 131.053 24.536 131.479 25.688C131.927 26.84 132.621 27.7787 133.559 28.504C134.519 29.2293 135.767 29.592 137.303 29.592C138.455 29.592 139.554 29.304 140.599 28.728C141.645 28.152 142.498 27.384 143.159 26.424C143.821 25.4427 144.151 24.376 144.151 23.224C144.13 23.1387 143.981 23.0747 143.703 23.032C143.426 22.9893 142.807 22.9467 141.847 22.904C141.634 22.8827 141.421 22.872 141.207 22.872C140.994 22.872 140.77 22.872 140.535 22.872C140.087 22.872 139.629 22.8827 139.159 22.904C138.711 22.904 138.263 22.904 137.815 22.904C137.047 22.904 136.663 22.456 136.663 21.56C136.663 21.304 136.77 21.0693 136.983 20.856C137.218 20.6213 137.57 20.4613 138.039 20.376H140.023C140.749 20.376 141.485 20.3973 142.231 20.44C142.999 20.4827 143.703 20.6107 144.343 20.824C145.005 21.016 145.527 21.3573 145.911 21.848C146.317 22.3387 146.519 23.032 146.519 23.928C146.519 25.0587 146.242 26.1253 145.687 27.128C145.154 28.1093 144.439 28.9733 143.543 29.72C142.647 30.4667 141.655 31.0533 140.567 31.48C139.479 31.9067 138.391 32.12 137.303 32.12ZM152.922 30.68C152.709 30.68 152.495 30.616 152.282 30.488C152.09 30.36 151.962 30.2213 151.898 30.072V29.176C151.898 28.728 151.962 28.28 152.09 27.832C152.239 27.384 152.357 26.936 152.442 26.488C152.485 26.3173 152.517 26.1253 152.538 25.912C152.559 25.6773 152.57 25.304 152.57 24.792H150.778C150.629 24.7707 150.479 24.7493 150.33 24.728C150.181 24.7067 150.053 24.6853 149.946 24.664C149.797 24.6 149.658 24.504 149.53 24.376C149.423 24.2267 149.37 23.9707 149.37 23.608C149.37 23.1813 149.466 22.8933 149.658 22.744C149.871 22.5947 150.202 22.4773 150.65 22.392C150.885 22.3493 151.13 22.3173 151.386 22.296C151.663 22.2533 151.919 22.2213 152.154 22.2C152.41 22.1573 152.677 22.0933 152.954 22.008C153.231 21.9227 153.487 21.784 153.722 21.592C153.829 21.5067 153.946 21.3893 154.074 21.24C154.223 21.0907 154.298 21.016 154.298 21.016C154.341 20.9733 154.383 20.9093 154.426 20.824C154.469 20.7173 154.522 20.5893 154.586 20.44C154.629 20.3547 154.671 20.2587 154.714 20.152C154.757 20.024 154.789 19.9067 154.81 19.8C154.874 19.6293 154.927 19.4693 154.97 19.32C155.034 19.1493 155.098 19.0213 155.162 18.936C155.311 18.6587 155.535 18.2213 155.834 17.624C156.133 17.0053 156.453 16.344 156.794 15.64C157.157 14.9147 157.477 14.264 157.754 13.688C158.053 13.112 158.266 12.7173 158.394 12.504C158.607 12.1413 158.821 11.7787 159.034 11.416C159.269 11.0533 159.525 10.712 159.802 10.392C160.399 9.66667 160.922 9.304 161.37 9.304C161.775 9.304 162.127 9.41067 162.426 9.624C162.725 9.816 163.002 10.0933 163.258 10.456C163.514 10.84 163.727 11.2453 163.898 11.672C164.09 12.0773 164.282 12.4933 164.474 12.92C165.583 15.3307 166.565 17.8373 167.418 20.44C168.293 23.0427 168.986 25.6347 169.498 28.216V28.664C169.498 29.0267 169.391 29.3467 169.178 29.624C168.965 29.88 168.783 30.008 168.634 30.008C168.122 30.008 167.738 29.8267 167.482 29.464C167.247 29.1013 167.055 28.5573 166.906 27.832C166.821 27.4693 166.746 27.1173 166.682 26.776C166.639 26.4133 166.586 26.072 166.522 25.752C166.437 25.4533 166.298 25.1333 166.106 24.792C165.935 24.4293 165.765 24.1413 165.594 23.928H162.042C161.701 23.928 161.317 23.928 160.89 23.928C160.463 23.9067 160.015 23.896 159.546 23.896C159.077 23.896 158.597 23.928 158.106 23.992C157.615 24.0347 157.157 24.1413 156.73 24.312C156.175 24.5253 155.749 24.856 155.45 25.304C155.173 25.752 154.959 26.2533 154.81 26.808C154.682 27.3413 154.565 27.864 154.458 28.376C154.351 28.952 154.213 29.4853 154.042 29.976C153.893 30.4453 153.519 30.68 152.922 30.68ZM161.178 21.592C162.373 21.592 163.205 21.5813 163.674 21.56C164.143 21.5387 164.453 21.432 164.602 21.24C164.666 21.0693 164.698 20.8773 164.698 20.664C164.698 20.3653 164.645 20.0347 164.538 19.672C164.453 19.288 164.346 18.9467 164.218 18.648C164.133 18.4347 164.005 18.1147 163.834 17.688C163.663 17.24 163.471 16.7493 163.258 16.216C163.045 15.6827 162.842 15.1707 162.65 14.68C162.458 14.1893 162.309 13.8053 162.202 13.528C162.159 13.3787 162.063 13.2293 161.914 13.08C161.786 12.9093 161.626 12.824 161.434 12.824C161.263 12.824 161.093 12.9307 160.922 13.144C160.73 13.4 160.463 13.8373 160.122 14.456C159.802 15.0747 159.45 15.7573 159.066 16.504C158.682 17.2507 158.33 17.976 158.01 18.68C157.69 19.3627 157.455 19.896 157.306 20.28C157.178 20.5573 157.114 20.7813 157.114 20.952C157.114 21.2293 157.221 21.4107 157.434 21.496C157.669 21.56 157.903 21.592 158.138 21.592H161.178ZM174.291 30.2C173.885 30.2 173.597 30.136 173.427 30.008C173.277 29.8587 173.171 29.624 173.107 29.304V27.864C173.107 26.0933 173.181 24.3227 173.331 22.552C173.48 20.76 173.619 18.968 173.747 17.176C173.896 15.3627 173.971 13.56 173.971 11.768C173.971 11.2773 174.099 10.872 174.355 10.552C174.611 10.232 174.941 10.072 175.347 10.072C175.795 10.072 176.083 10.2 176.211 10.456C176.36 10.712 176.424 11.0213 176.403 11.384C176.403 11.7467 176.403 12.0987 176.403 12.44C176.403 14.808 176.285 17.208 176.051 19.64C175.816 22.0507 175.699 24.6107 175.699 27.32C176.317 27.2347 177.085 27.1387 178.003 27.032C178.92 26.9253 179.827 26.8187 180.723 26.712C181.64 26.6053 182.376 26.5307 182.931 26.488H183.923C184.157 26.488 184.456 26.488 184.819 26.488C185.181 26.488 185.544 26.52 185.907 26.584C186.291 26.6267 186.6 26.7333 186.835 26.904C187.091 27.0747 187.219 27.3307 187.219 27.672C187.219 28.2053 187.048 28.5467 186.707 28.696C186.387 28.8453 186.013 28.92 185.587 28.92C185.416 28.92 185.245 28.92 185.075 28.92C184.904 28.8987 184.733 28.888 184.563 28.888C183.283 28.888 181.757 28.9947 179.987 29.208C178.216 29.4 176.477 29.7307 174.771 30.2H174.291ZM197.887 31.48C197.525 31.48 197.045 31.4693 196.447 31.448C195.85 31.4267 195.285 31.3307 194.751 31.16C194.218 31.0107 193.866 30.7333 193.695 30.328C193.695 29.9867 193.706 29.368 193.727 28.472C193.749 27.576 193.759 26.5093 193.759 25.272C193.781 24.0133 193.802 22.6693 193.823 21.24C193.845 19.8107 193.855 18.4133 193.855 17.048C193.855 16.3653 193.791 15.6827 193.663 15C193.535 14.296 193.354 13.6773 193.119 13.144C192.906 12.6107 192.639 12.2693 192.319 12.12C192.063 12.248 191.807 12.344 191.551 12.408C191.317 12.4507 191.082 12.472 190.847 12.472C190.506 12.472 190.218 12.3973 189.983 12.248C189.749 12.0773 189.631 11.832 189.631 11.512C189.631 10.936 189.855 10.4667 190.303 10.104C190.751 9.74133 191.306 9.464 191.967 9.272C192.629 9.08 193.29 8.94133 193.951 8.856C194.613 8.77067 195.146 8.70667 195.551 8.664C195.85 8.664 196.255 8.65333 196.767 8.632C197.279 8.58933 197.749 8.55733 198.175 8.536C198.602 8.51467 198.837 8.504 198.879 8.504C200.394 8.54667 201.855 8.81333 203.263 9.304C204.693 9.79467 205.973 10.488 207.103 11.384C208.255 12.2587 209.162 13.3147 209.823 14.552C210.506 15.7893 210.847 17.1867 210.847 18.744C210.847 20.408 210.485 22.008 209.759 23.544C209.034 25.0587 208.053 26.4133 206.815 27.608C205.578 28.8027 204.191 29.752 202.655 30.456C201.119 31.1387 199.53 31.48 197.887 31.48ZM197.695 28.792C198.954 28.792 200.223 28.504 201.503 27.928C202.805 27.352 203.989 26.5733 205.055 25.592C206.143 24.6107 207.018 23.5013 207.679 22.264C208.341 21.0053 208.671 19.7147 208.671 18.392C208.671 17.2613 208.373 16.2373 207.775 15.32C207.178 14.4027 206.367 13.624 205.343 12.984C204.319 12.3227 203.178 11.8213 201.919 11.48C200.682 11.1387 199.402 10.968 198.079 10.968C197.93 10.968 197.759 10.968 197.567 10.968C197.397 10.968 197.226 10.9787 197.055 11C196.223 11.0427 195.711 11.3733 195.519 11.992C195.882 13.656 196.117 15.256 196.223 16.792C196.33 18.328 196.383 19.928 196.383 21.592C196.383 22.5093 196.351 23.4373 196.287 24.376C196.245 25.3147 196.223 26.2853 196.223 27.288V28.248C196.458 28.4613 196.693 28.6107 196.927 28.696C197.183 28.76 197.439 28.792 197.695 28.792ZM214.934 30.84C214.55 30.84 214.294 30.7973 214.166 30.712C214.06 30.6053 214.006 30.3707 214.006 30.008C214.006 29.624 214.081 29.368 214.23 29.24C214.401 29.0907 214.582 28.9733 214.774 28.888C214.966 28.8027 215.148 28.7173 215.318 28.632C215.489 28.5467 215.649 28.4293 215.798 28.28C216.182 27.9387 216.374 27.48 216.374 26.904C216.374 26.6053 216.364 26.2213 216.342 25.752C216.342 25.2613 216.342 24.7387 216.342 24.184C216.342 23.3093 216.342 22.4027 216.342 21.464C216.364 20.504 216.396 19.608 216.438 18.776C216.481 17.944 216.534 17.2933 216.598 16.824C216.662 16.2693 216.716 15.7147 216.758 15.16C216.822 14.6053 216.886 14.04 216.95 13.464V12.408C216.737 12.1733 216.556 12.0027 216.406 11.896C216.257 11.768 216.118 11.6613 215.99 11.576L215.382 11.192C215.233 11.1067 215.116 11.0213 215.03 10.936C214.966 10.8293 214.934 10.6693 214.934 10.456C214.934 10.0293 215.169 9.816 215.638 9.816C216.001 9.816 216.332 9.848 216.63 9.912C216.95 9.95467 217.249 9.976 217.526 9.976H217.878C217.985 9.976 218.252 9.95467 218.678 9.912C219.105 9.848 219.553 9.784 220.022 9.72C220.449 9.656 220.854 9.60267 221.238 9.56C221.622 9.496 221.857 9.464 221.942 9.464H222.134C222.476 9.464 222.71 9.528 222.838 9.656C222.966 9.76266 223.03 9.976 223.03 10.296C223.03 10.6373 222.966 10.8613 222.838 10.968C222.732 11.0747 222.572 11.1493 222.358 11.192C222.188 11.2347 222.006 11.2773 221.814 11.32C221.622 11.3627 221.441 11.4053 221.27 11.448C221.057 11.512 220.833 11.608 220.598 11.736C220.385 11.864 220.172 12.0773 219.958 12.376C219.809 13.1867 219.66 13.9973 219.51 14.808C219.382 15.5973 219.265 16.3973 219.158 17.208C218.902 19.4053 218.774 21.6453 218.774 23.928C218.774 24.3333 218.774 24.6853 218.774 24.984C218.796 25.2827 218.817 25.6027 218.838 25.944C218.86 26.2853 218.902 26.7227 218.966 27.256C219.094 27.704 219.478 27.992 220.118 28.12C220.268 28.1413 220.428 28.1733 220.598 28.216C220.79 28.2373 220.982 28.2693 221.174 28.312C221.494 28.376 221.729 28.472 221.878 28.6C222.028 28.7067 222.102 28.8987 222.102 29.176C222.102 29.3893 222.017 29.5707 221.846 29.72C221.697 29.848 221.42 29.9653 221.014 30.072C220.822 30.1147 220.62 30.1467 220.406 30.168C220.193 30.1893 219.98 30.2107 219.766 30.232L218.55 30.328C218.486 30.3493 218.401 30.36 218.294 30.36C218.188 30.36 218.06 30.3813 217.91 30.424C217.782 30.4453 217.633 30.4773 217.462 30.52C217.313 30.5413 217.153 30.5733 216.982 30.616C216.705 30.6587 216.428 30.712 216.15 30.776C215.894 30.8187 215.724 30.84 215.638 30.84H214.934ZM227.502 30.84C226.969 30.84 226.659 30.648 226.574 30.264C226.51 29.88 226.478 29.4533 226.478 28.984V28.472L226.542 28.024C226.563 27.896 226.595 27.7467 226.638 27.576C226.681 27.4053 226.713 27.2453 226.734 27.096C226.777 26.776 226.819 26.4773 226.862 26.2C226.926 25.9013 226.969 25.6773 226.99 25.528C227.033 25.208 227.086 24.696 227.15 23.992C227.235 23.288 227.31 22.5307 227.374 21.72C227.459 20.888 227.523 20.1307 227.566 19.448C227.63 18.7653 227.662 18.296 227.662 18.04C227.662 17.912 227.673 17.592 227.694 17.08C227.715 16.5467 227.737 15.9707 227.758 15.352C227.779 14.712 227.801 14.136 227.822 13.624C227.843 13.112 227.854 12.792 227.854 12.664C227.854 12.344 227.875 11.992 227.918 11.608C227.961 11.2027 228.078 10.8507 228.27 10.552C228.462 10.2533 228.771 10.104 229.198 10.104C229.497 10.104 229.806 10.296 230.126 10.68C230.467 11.0427 230.713 11.3413 230.862 11.576C230.947 11.7253 231.022 11.864 231.086 11.992C231.171 12.0987 231.246 12.2053 231.31 12.312C231.993 13.4213 232.729 14.584 233.518 15.8C234.329 17.016 235.107 18.2427 235.854 19.48C236.217 20.0773 236.675 20.7813 237.23 21.592C237.806 22.3813 238.382 23.1707 238.958 23.96C239.555 24.728 240.078 25.3893 240.526 25.944C240.91 26.4347 241.23 26.68 241.486 26.68C241.721 26.68 241.902 26.392 242.03 25.816C242.329 24.28 242.574 22.552 242.766 20.632C242.958 18.6907 243.054 16.8133 243.054 15C243.054 14.2107 243.033 13.464 242.99 12.76C242.947 12.0347 242.883 11.3733 242.798 10.776C242.755 10.4133 242.851 10.136 243.086 9.944C243.342 9.73067 243.641 9.624 243.982 9.624C244.387 9.624 244.665 9.67733 244.814 9.784C244.985 9.89067 245.102 10.072 245.166 10.328C245.294 10.904 245.379 11.608 245.422 12.44C245.465 13.272 245.486 14.0613 245.486 14.808C245.486 17.7307 245.39 20.3013 245.198 22.52C245.006 24.7173 244.633 26.4347 244.078 27.672C243.523 28.888 242.702 29.496 241.614 29.496C241.017 29.496 240.43 29.2933 239.854 28.888C239.278 28.4613 238.734 27.9493 238.222 27.352C237.731 26.7547 237.294 26.168 236.91 25.592C235.715 23.8 234.734 22.3173 233.966 21.144C233.219 19.9493 232.611 19 232.142 18.296C231.694 17.592 231.353 17.0693 231.118 16.728C230.883 16.3653 230.702 16.1307 230.574 16.024C230.467 15.9173 230.35 15.864 230.222 15.864C230.222 16.2053 230.201 16.7387 230.158 17.464C230.137 18.168 230.094 18.9893 230.03 19.928C229.966 20.8667 229.891 21.8267 229.806 22.808C229.721 23.7893 229.625 24.728 229.518 25.624C229.411 26.4987 229.305 27.2347 229.198 27.832C229.134 28.152 229.049 28.5573 228.942 29.048C228.835 29.5173 228.665 29.9333 228.43 30.296C228.217 30.6587 227.907 30.84 227.502 30.84ZM257.682 31C256.359 31 255.154 30.7227 254.066 30.168C252.999 29.6133 252.071 28.856 251.282 27.896C250.514 26.936 249.917 25.8587 249.49 24.664C249.063 23.448 248.85 22.2 248.85 20.92C248.85 18.1253 249.501 15.832 250.802 14.04C252.125 12.248 254.055 10.8293 256.594 9.784C257.277 9.528 258.023 9.28267 258.834 9.048C259.645 8.792 260.381 8.664 261.042 8.664C261.682 8.664 262.258 8.74933 262.77 8.92C263.303 9.09067 263.741 9.368 264.082 9.752C264.317 10.008 264.477 10.2747 264.562 10.552C264.647 10.808 264.69 11.064 264.69 11.32C264.861 11.4693 265.042 11.6933 265.234 11.992C265.447 12.2693 265.639 12.536 265.81 12.792C266.599 13.88 267.133 14.9893 267.41 16.12C267.709 17.2507 267.858 18.5093 267.858 19.896C267.858 21.3467 267.613 22.7333 267.122 24.056C266.631 25.3787 265.927 26.5627 265.01 27.608C264.114 28.6533 263.037 29.4853 261.778 30.104C260.541 30.7013 259.175 31 257.682 31ZM258.002 28.664C259.261 28.664 260.349 28.376 261.266 27.8C262.183 27.2027 262.941 26.4453 263.538 25.528C264.135 24.5893 264.573 23.5867 264.85 22.52C265.149 21.432 265.298 20.3973 265.298 19.416C265.298 18.968 265.234 18.4027 265.106 17.72C264.978 17.0373 264.775 16.3333 264.498 15.608C264.242 14.8613 263.911 14.168 263.506 13.528C263.101 12.888 262.621 12.3653 262.066 11.96C261.511 11.5547 260.893 11.352 260.21 11.352C258.866 11.352 257.65 11.6187 256.562 12.152C255.474 12.6853 254.535 13.4107 253.746 14.328C252.978 15.2453 252.391 16.28 251.986 17.432C251.581 18.5627 251.378 19.7253 251.378 20.92C251.378 21.8373 251.506 22.7547 251.762 23.672C252.018 24.5893 252.413 25.4213 252.946 26.168C253.479 26.9147 254.162 27.5227 254.994 27.992C255.847 28.44 256.85 28.664 258.002 28.664ZM284.494 32.44C284.088 32.44 283.758 32.248 283.502 31.864C283.459 31.7787 283.406 31.672 283.342 31.544C283.299 31.416 283.278 31.2773 283.278 31.128C283.278 30.8933 283.352 30.6693 283.502 30.456C283.907 29.88 284.483 29.0587 285.23 27.992C285.976 26.904 286.83 25.6453 287.79 24.216C288.771 22.7867 289.806 21.2613 290.894 19.64C292.003 17.9973 293.112 16.344 294.222 14.68C295.352 12.9947 296.44 11.3733 297.486 9.816C298.552 8.23733 299.523 6.78666 300.398 5.464C301.294 4.14133 302.04 3.02133 302.638 2.104C303.171 1.29333 303.598 0.887999 303.918 0.887999C304.131 0.887999 304.312 1.016 304.462 1.272C304.718 1.67733 304.846 2.08267 304.846 2.488C304.846 2.82933 304.75 3.16 304.558 3.48C303.491 5.208 302.296 7.07467 300.974 9.08C299.672 11.0853 298.307 13.144 296.878 15.256C295.47 17.3467 294.072 19.4053 292.686 21.432C291.32 23.4373 290.04 25.3147 288.846 27.064C287.651 28.8133 286.616 30.3493 285.742 31.672C285.4 32.184 284.984 32.44 284.494 32.44ZM311.575 27.48C311.212 27.48 310.935 27.4053 310.743 27.256C310.572 27.0853 310.487 26.936 310.487 26.808C310.487 26.7013 310.508 26.584 310.551 26.456C310.615 26.328 310.668 26.2213 310.711 26.136C311.073 25.7947 311.447 25.4747 311.831 25.176C312.215 24.856 312.599 24.5467 312.983 24.248C313.409 23.9067 313.836 23.544 314.263 23.16C314.711 22.776 315.212 22.2853 315.767 21.688C315.383 21.1973 315.031 20.824 314.711 20.568C314.412 20.312 314.113 20.0773 313.815 19.864C313.516 19.6293 313.207 19.4053 312.887 19.192C312.567 18.9787 312.247 18.7547 311.927 18.52C311.287 18.0293 310.785 17.5813 310.423 17.176C310.081 16.7707 309.911 16.3867 309.911 16.024C309.911 15.9173 309.9 15.832 309.879 15.768C309.879 15.6827 309.879 15.5973 309.879 15.512C309.879 15.3413 309.921 15.2133 310.007 15.128H310.487C311.084 15.128 311.585 15.2987 311.991 15.64L317.271 20.408C317.825 20.92 318.103 21.4 318.103 21.848C318.103 22.2107 317.975 22.5413 317.719 22.84C317.655 22.9253 317.58 23.0107 317.495 23.096C317.409 23.16 317.313 23.2453 317.207 23.352C317.1 23.4373 316.983 23.5333 316.855 23.64C316.727 23.7467 316.609 23.864 316.503 23.992C316.353 24.12 316.108 24.3227 315.767 24.6C315.447 24.8773 315.084 25.1867 314.679 25.528C314.273 25.848 313.9 26.1573 313.559 26.456C313.217 26.7333 312.961 26.9467 312.791 27.096C312.343 27.352 311.937 27.48 311.575 27.48Z" fill="white"/>
</svg>
